<svg width="20" height="20" viewBox="0 0 20 20" fill="none" xmlns="http://www.w3.org/2000/svg">
    <path d="M8.82625 0.616223C9.44078 -0.109054 10.5594 -0.109054 11.1739 0.616223L11.9144 1.49024C12.2912 1.93499 12.887 2.12858 13.4533 1.99026L14.5661 1.71842C15.4896 1.49285 16.3946 2.15037 16.4654 3.09832L16.5507 4.24067C16.5942 4.82196 16.9624 5.32879 17.5018 5.54972L18.5619 5.9839C19.4416 6.34416 19.7872 7.40808 19.2873 8.21662L18.6849 9.19093C18.3784 9.68678 18.3784 10.3132 18.6849 10.8091L19.2873 11.7834C19.7872 12.5919 19.4416 13.6559 18.5619 14.0161L17.5018 14.4503C16.9624 14.6712 16.5942 15.1781 16.5507 15.7593L16.4654 16.9017C16.3946 17.8496 15.4896 18.5072 14.5661 18.2816L13.4533 18.0098C12.887 17.8714 12.2912 18.065 11.9144 18.5098L11.1739 19.3838C10.5594 20.1091 9.44078 20.1091 8.82625 19.3838L8.08578 18.5098C7.70894 18.065 7.11317 17.8714 6.54686 18.0098L5.43408 18.2816C4.51064 18.5072 3.60563 17.8496 3.53481 16.9017L3.44947 15.7593C3.40604 15.1781 3.03781 14.6712 2.49838 14.4503L1.43831 14.0161C0.558646 13.6559 0.212961 12.5919 0.712861 11.7834L1.31527 10.8091C1.62181 10.3132 1.62181 9.68678 1.31527 9.19093L0.712861 8.21662C0.212961 7.40808 0.558646 6.34416 1.43831 5.9839L2.49838 5.54972C3.03781 5.32879 3.40604 4.82196 3.44947 4.24067L3.53481 3.09832C3.60563 2.15037 4.51064 1.49285 5.43408 1.71842L6.54686 1.99026C7.11317 2.12858 7.70894 1.93499 8.08578 1.49024L8.82625 0.616223Z" fill="#3D81DB"/>
    <path d="M8.8466 12.0192L6.82737 10L6.1543 10.6731L8.8466 13.3654L14.6158 7.59617L13.9428 6.9231L8.8466 12.0192Z" fill="white" stroke="white"/>
</svg>
