<svg width="500" height="500" viewBox="0 0 500 500" fill="none" xmlns="http://www.w3.org/2000/svg">
<g filter="url(#filter0_d_3214_2)">
<path fill-rule="evenodd" clip-rule="evenodd" d="M349.639 119.784V139.568H374.781H399.925L394.868 159.353L389.811 179.137H384.883H379.957V257.161V335.184L382.987 335.778C384.951 336.162 386.73 337.513 388.037 339.611C389.414 341.821 390.057 344.6 390.059 348.356C390.063 353.688 390.175 353.913 393.655 355.537C396.018 356.64 397.765 358.426 398.759 360.751C399.633 362.801 400.141 366.436 399.965 369.397L399.663 374.505H349.639H299.615V367.412C299.615 361.332 299.953 359.966 301.985 357.851C303.287 356.494 305.396 355.127 306.67 354.814C308.762 354.301 309.025 353.561 309.393 347.192C309.753 340.965 310.128 339.863 312.596 337.785C314.134 336.491 316.275 335.432 317.357 335.432C319.273 335.432 319.321 334.364 319.304 292.154C319.29 258.076 318.973 247.404 317.81 241.951C316.998 238.143 314.21 230.798 311.613 225.629C307.762 217.965 305.381 214.754 298.705 208.219C292.029 201.685 288.749 199.354 280.919 195.585C275.639 193.043 268.135 190.314 264.244 189.518C260.353 188.724 254.082 188.066 250.306 188.056C246.531 188.047 239.936 188.72 235.653 189.551C231.039 190.446 224.154 192.849 218.768 195.445C213.361 198.049 207.13 202.066 203.404 205.347C199.955 208.383 194.881 214.165 192.127 218.196C189.374 222.226 186.129 228.106 184.917 231.264C183.705 234.422 182.071 240.272 181.287 244.264C180.197 249.808 179.86 261.436 179.86 293.477C179.86 335.29 179.867 335.432 181.959 335.432C183.113 335.432 185.387 336.732 187.012 338.323C189.676 340.932 189.966 341.851 189.966 347.702C189.966 353.798 190.118 354.227 192.495 354.81C193.887 355.153 196.161 356.753 197.548 358.367C199.707 360.879 200.072 362.292 200.072 368.152V375H150.048H100.023V367.536C100.023 360.964 100.315 359.787 102.463 357.684C103.805 356.371 106.079 355.007 107.516 354.654C109.989 354.047 110.129 353.67 110.129 347.625C110.129 344.111 110.62 340.338 111.221 339.24C111.822 338.141 113.868 336.607 115.768 335.829L119.225 334.416V258.341C119.225 216.5 119.5 181.562 119.838 180.702C120.35 179.394 119.557 179.137 115.011 179.137H109.571L104.774 160.094C102.135 149.621 99.9869 140.718 100 140.31C100.013 139.903 111.165 139.568 124.783 139.568H149.542V119.784V100H249.591H349.639V119.784Z" fill="url(#paint0_linear_3214_2)"/>
</g>
<defs>
<filter id="filter0_d_3214_2" x="95" y="99" width="310" height="285" filterUnits="userSpaceOnUse" color-interpolation-filters="sRGB">
<feFlood flood-opacity="0" result="BackgroundImageFix"/>
<feColorMatrix in="SourceAlpha" type="matrix" values="0 0 0 0 0 0 0 0 0 0 0 0 0 0 0 0 0 0 127 0" result="hardAlpha"/>
<feOffset dy="4"/>
<feGaussianBlur stdDeviation="2.5"/>
<feComposite in2="hardAlpha" operator="out"/>
<feColorMatrix type="matrix" values="0 0 0 0 0 0 0 0 0 0 0 0 0 0 0 0 0 0 0.25 0"/>
<feBlend mode="normal" in2="BackgroundImageFix" result="effect1_dropShadow_3214_2"/>
<feBlend mode="normal" in="SourceGraphic" in2="effect1_dropShadow_3214_2" result="shape"/>
</filter>
<linearGradient id="paint0_linear_3214_2" x1="64.2857" y1="100" x2="385.714" y2="367.857" gradientUnits="userSpaceOnUse">
<stop stop-color="#D8CDEB"/>
<stop offset="0.135556" stop-color="#FCFBFF"/>
<stop offset="0.394208" stop-color="#C6B7E1"/>
<stop offset="0.848958" stop-color="#CBC7D2"/>
<stop offset="0.984375" stop-color="#F5F0FF"/>
</linearGradient>
</defs>
</svg>
